<?xml version="1.0" encoding="utf-8"?>
<!-- Generator: Adobe Illustrator 22.1.0, SVG Export Plug-In . SVG Version: 6.00 Build 0)  -->
<svg version="1.1" id="Layer_1" xmlns="http://www.w3.org/2000/svg" xmlns:xlink="http://www.w3.org/1999/xlink" x="0px" y="0px"
	 viewBox="0 0 24 24" style="enable-background:new 0 0 24 24;" xml:space="preserve">
<style type="text/css">
	.st0{fill:#8468FF;}
</style>
<path class="st0" d="M12,5c3.5,0,5.9,2.8,5.6,6.8c1.7,0,4.4,0.8,4.4,3.7c0,1.9-1.6,3.5-3.5,3.5h-13C3.6,19,2,17.4,2,15.5
	c0-2.8,2.5-3.8,4.4-3.7C6.3,7.6,8.6,5,12,5z M12,3c-4,0-7.3,3.1-7.5,7.1C2,10.6,0,12.8,0,15.5c0,3,2.5,5.5,5.5,5.5h13
	c3,0,5.5-2.5,5.5-5.5c0-2.7-2-4.9-4.5-5.4C19.3,6.1,16,3,12,3z"/>
</svg>
