<?xml version="1.0" encoding="utf-8"?>
<!-- Generator: Adobe Illustrator 22.1.0, SVG Export Plug-In . SVG Version: 6.00 Build 0)  -->
<svg version="1.1" id="Layer_1" xmlns="http://www.w3.org/2000/svg" xmlns:xlink="http://www.w3.org/1999/xlink" x="0px" y="0px"
	 viewBox="0 0 256 512" style="enable-background:new 0 0 256 512;" xml:space="preserve">
<style type="text/css">
	.st0{fill:#FFFFFF;}
</style>
<path class="st0" d="M192,384c0,35.3-28.7,64-64,64s-64-28.7-64-64c0-23.7,12.9-44.3,32-55.4V224c0-17.7,14.3-32,32-32
	s32,14.3,32,32v104.6C179.1,339.7,192,360.3,192,384z M224,299.3c19.9,22.6,32,52.2,32,84.7c0,70.7-57.3,128-128,128
	c-0.3,0-0.6,0-0.9,0C56.8,511.5-0.4,453.6,0,383.3c0.2-32.2,12.2-61.6,32-84V96c0-53,43-96,96-96s96,43,96,96V299.3z M208,384
	c0-34.3-19.4-52.2-32-66.5V96c0-26.5-21.5-48-48-48S80,69.5,80,96v221.5c-12.7,14.4-31.8,32.1-32,66.1
	c-0.2,43.9,35.6,80.1,79.4,80.4l0.6,0C172.1,464,208,428.1,208,384z"/>
</svg>
